<?xml version="1.0" standalone="no"?>
<!DOCTYPE svg PUBLIC "-//W3C//DTD SVG 1.1//EN" "http://www.w3.org/Graphics/SVG/1.1/DTD/svg11.dtd">
<svg xmlns:xlink="http://www.w3.org/1999/xlink" width="9.861ex" height="5.343ex" style="vertical-align: -2.005ex;" viewBox="0 -1437.2 4245.6 2300.3" xmlns="http://www.w3.org/2000/svg">
<defs>
<path stroke-width="10" id="E1-MJMAINB-50" d="M400 0Q376 3 226 3Q75 3 51 0H39V62H147V624H39V686H253Q435 686 470 685T536 678Q585 668 621 648T675 605T705 557T718 514T721 483T718 451T704 409T673 362T616 322T530 293Q500 288 399 287H304V62H412V0H400ZM553 475Q553 554 537 582T459 622Q451 623 373 624H298V343H372Q457 344 480 350Q527 362 540 390T553 475Z"></path>
<path stroke-width="10" id="E1-MJMAIN-3A" d="M78 370Q78 394 95 412T138 430Q162 430 180 414T199 371Q199 346 182 328T139 310T96 327T78 370ZM78 60Q78 84 95 102T138 120Q162 120 180 104T199 61Q199 36 182 18T139 0T96 17T78 60Z"></path>
<path stroke-width="10" id="E1-MJMAIN-3D" d="M56 347Q56 360 70 367H707Q722 359 722 347Q722 336 708 328L390 327H72Q56 332 56 347ZM56 153Q56 168 72 173H708Q722 163 722 153Q722 140 707 133H70Q56 140 56 153Z"></path>
<path stroke-width="10" id="E1-MJMAIN-31" d="M213 578L200 573Q186 568 160 563T102 556H83V602H102Q149 604 189 617T245 641T273 663Q275 666 285 666Q294 666 302 660V361L303 61Q310 54 315 52T339 48T401 46H427V0H416Q395 3 257 3Q121 3 100 0H88V46H114Q136 46 152 46T177 47T193 50T201 52T207 57T213 61V578Z"></path>
<path stroke-width="10" id="E1-MJMATHI-4E" d="M234 637Q231 637 226 637Q201 637 196 638T191 649Q191 676 202 682Q204 683 299 683Q376 683 387 683T401 677Q612 181 616 168L670 381Q723 592 723 606Q723 633 659 637Q635 637 635 648Q635 650 637 660Q641 676 643 679T653 683Q656 683 684 682T767 680Q817 680 843 681T873 682Q888 682 888 672Q888 650 880 642Q878 637 858 637Q787 633 769 597L620 7Q618 0 599 0Q585 0 582 2Q579 5 453 305L326 604L261 344Q196 88 196 79Q201 46 268 46H278Q284 41 284 38T282 19Q278 6 272 0H259Q228 2 151 2Q123 2 100 2T63 2T46 1Q31 1 31 10Q31 14 34 26T39 40Q41 46 62 46Q130 49 150 85Q154 91 221 362L289 634Q287 635 234 637Z"></path>
<path stroke-width="10" id="E1-MJMAINB-31" d="M481 0L294 3Q136 3 109 0H96V62H227V304Q227 546 225 546Q169 529 97 529H80V591H97Q231 591 308 647L319 655H333Q355 655 359 644Q361 640 361 351V62H494V0H481Z"></path>
</defs>
<g stroke="currentColor" fill="currentColor" stroke-width="0" transform="matrix(1 0 0 -1 0 0)">
 <use xlink:href="#E1-MJMAINB-50" x="0" y="0"></use>
<g transform="translate(1068,0)">
 <use xlink:href="#E1-MJMAIN-3A"></use>
 <use xlink:href="#E1-MJMAIN-3D" x="283" y="0"></use>
</g>
<g transform="translate(2412,0)">
<g transform="translate(120,0)">
<rect stroke="none" width="1013" height="60" x="0" y="220"></rect>
 <use xlink:href="#E1-MJMAIN-31" x="254" y="676"></use>
 <use xlink:href="#E1-MJMATHI-4E" x="60" y="-713"></use>
</g>
</g>
 <use xlink:href="#E1-MJMAINB-31" x="3665" y="0"></use>
</g>
</svg>